HIERARCHY
ROOT Hips
{
	OFFSET -3.958830 18.904000 13.208200
	CHANNELS 6 Xposition Yposition Zposition Zrotation Yrotation Xrotation 
	JOINT LHipJoint
	{
		OFFSET 0.000000 0.000000 0.000000
		CHANNELS 3 Zrotation Yrotation Xrotation
		JOINT LeftUpLeg
		{
			OFFSET 1.800000 -1.400000 0.085000
			CHANNELS 3 Zrotation Yrotation Xrotation
			JOINT LeftLeg
			{
				OFFSET 2.215000 -6.000000 0.000000
				CHANNELS 3 Zrotation Yrotation Xrotation
				JOINT LeftFoot
				{
					OFFSET 2.500000 -6.900000 0.000000
					CHANNELS 3 Zrotation Yrotation Xrotation
					JOINT LeftToeBase
					{
						OFFSET 0.200000 -0.500000 1.950000
						CHANNELS 3 Zrotation Yrotation Xrotation
						End Site
						{
							OFFSET 0.000000 0.000000 0.000000
						}
					}
				}
			}
		}
	}
	JOINT RHipJoint
	{
		OFFSET 0.000000 0.000000 0.000000
		CHANNELS 3 Zrotation Yrotation Xrotation
		JOINT RightUpLeg
		{
			OFFSET -1.800000 -1.400000 0.085000
			CHANNELS 3 Zrotation Yrotation Xrotation
			JOINT RightLeg
			{
				OFFSET -2.215000 -6.000000 0.000000
				CHANNELS 3 Zrotation Yrotation Xrotation
				JOINT RightFoot
				{
					OFFSET -2.500000 -6.900000 0.000000
					CHANNELS 3 Zrotation Yrotation Xrotation
					JOINT RightToeBase
					{
						OFFSET -0.200000 -0.500000 1.950000
						CHANNELS 3 Zrotation Yrotation Xrotation
						End Site
						{
							OFFSET 0.000000 0.000000 0.000000
						}
					}
				}
			}
		}
	}
	JOINT LowerBack
	{
		OFFSET 0.000000 0.000000 0.000000
		CHANNELS 3 Zrotation Yrotation Xrotation
		JOINT Spine
		{
			OFFSET -0.087000 1.940000 -0.288900
			CHANNELS 3 Zrotation Yrotation Xrotation
			JOINT Spine1
			{
				OFFSET 0.000000 1.950000 0.060000
				CHANNELS 3 Zrotation Yrotation Xrotation
				JOINT Neck
				{
					OFFSET 0.000000 0.000000 0.000000
					CHANNELS 3 Zrotation Yrotation Xrotation
					JOINT Neck1
					{
						OFFSET 0.000000 1.600000 0.340000
						CHANNELS 3 Zrotation Yrotation Xrotation
						JOINT Head
						{
							OFFSET 0.000000 1.667000 -0.240000
							CHANNELS 3 Zrotation Yrotation Xrotation
							End Site
							{
								OFFSET 0.000000 0.000000 0.000000
							}
						}
					}
				}
				JOINT LeftShoulder
				{
					OFFSET 0.000000 0.000000 0.000000
					CHANNELS 3 Zrotation Yrotation Xrotation
					JOINT LeftArm
					{
						OFFSET 2.700000 1.550000 -0.730000
						CHANNELS 3 Zrotation Yrotation Xrotation
						JOINT LeftForeArm
						{
							OFFSET 5.450000 0.000000 0.000000
							CHANNELS 3 Zrotation Yrotation Xrotation
							JOINT LeftHand
							{
								OFFSET 3.450000 0.000000 0.000000
								CHANNELS 3 Zrotation Yrotation Xrotation
								JOINT LeftHandIndex1
								{
									OFFSET 0.750000 0.000000 0.000000
									CHANNELS 3 Zrotation Yrotation Xrotation
									End Site
									{
										OFFSET 0.000000 0.000000 0.000000
									}
								}
							}
						}
					}
				}
				JOINT RightShoulder
				{
					OFFSET 0.000000 0.000000 0.000000
					CHANNELS 3 Zrotation Yrotation Xrotation
					JOINT RightArm
					{
						OFFSET -2.700000 1.550000 -0.730000
						CHANNELS 3 Zrotation Yrotation Xrotation
						JOINT RightForeArm
						{
							OFFSET -5.450000 0.000000 0.000000
							CHANNELS 3 Zrotation Yrotation Xrotation
							JOINT RightHand
							{
								OFFSET -3.450000 0.000000 0.000000
								CHANNELS 3 Zrotation Yrotation Xrotation
								JOINT RightHandIndex1
								{
									OFFSET -0.750000 0.000000 0.000000
									CHANNELS 3 Zrotation Yrotation Xrotation
									End Site
									{
										OFFSET 0.000000 0.000000 0.000000
									}
								}
							}
						}
					}
				}
			}
		}
	}
}
MOTION
Frames: 9
Frame Time: 0.016667
-0.821570 16.050220 -3.237900 -1.586126 15.721575 -6.829169 -15.001077 10.534897 4.288549 14.703846 -7.556486 -19.021983 -28.689956 24.763437 45.699169 1.158962 12.251701 0.335502 0.671740 0.602800 0.263520 18.633536 -10.291303 3.332581 -8.727848 6.268751 -25.791827 20.313105 -19.354043 47.845222 -1.583053 -9.259691 1.143131 0.440720 0.117290 0.009600 -4.519098 1.682896 -9.036762 13.256020 -2.339454 17.146903 -5.349161 0.413820 21.564542 5.164345 2.588468 -18.346014 5.713623 -13.963158 32.036034 7.711520 -15.737040 -22.673800 -14.491096 -36.149152 9.433871 -43.582619 -17.010271 -1.000499 14.989407 5.274591 -0.700921 -3.625471 2.976474 0.614550 -0.176540 0.119960 0.262930 5.267324 40.462278 16.496165 49.047337 14.762823 0.349885 -8.956576 -8.409222 1.079400 2.419914 -1.484327 -0.180100 0.481960 -0.090420 -0.040870 
-0.804880 16.028700 -3.254440 -2.050016 14.376081 -6.891264 -15.028518 10.503546 4.433111 16.527071 -7.224501 -19.465368 -30.613925 25.767909 44.906309 1.259840 12.392815 0.308712 0.647830 0.577590 0.257200 18.618350 -10.161493 3.337746 -7.952022 6.723974 -26.199106 19.439342 -19.286851 49.075681 -1.608668 -9.330335 1.139312 0.403480 0.103460 -0.001280 -4.422107 1.517819 -9.127040 13.175042 -2.210705 17.515564 -4.526293 0.357103 19.938926 4.567178 2.827678 -18.164533 5.932052 -14.618453 32.869074 7.927610 -16.122470 -22.337780 -15.487233 -35.094619 9.165768 -44.093372 -16.595026 -0.904871 14.839024 5.076862 -0.593978 -3.592063 2.970115 0.612790 -0.191820 0.128640 0.263360 7.114957 38.921015 16.014097 48.212554 13.863754 -0.085466 -10.175461 -7.983596 1.069658 2.465058 -1.472279 -0.170770 0.464490 -0.106040 -0.033380 
-0.797610 16.054080 -3.271000 -2.138806 13.185078 -7.242676 -15.053506 10.622579 4.447707 17.207186 -6.738017 -18.708765 -31.467481 25.681206 43.416166 1.292943 12.234993 0.364316 0.605280 0.536490 0.219610 18.579215 -10.178348 3.295671 -6.875076 6.927194 -25.786824 17.758066 -18.307549 49.411120 -1.553194 -9.124965 1.221880 0.352020 0.102460 0.006120 -4.315195 1.362270 -9.127165 12.621673 -1.872090 17.990506 -3.791286 0.551693 19.221678 3.990774 2.963951 -18.391706 6.036302 -15.149527 33.602688 8.429730 -16.652970 -21.960760 -15.167476 -34.978755 9.245230 -44.654265 -16.392212 -1.160313 15.641720 4.561738 -0.636433 -3.572265 2.993663 0.597510 -0.193880 0.130560 0.258730 7.758783 38.550584 16.131254 47.788668 12.959842 -0.441772 -10.976148 -7.691101 1.093176 2.490095 -1.462147 -0.147190 0.436570 -0.096900 -0.016250 
-0.786260 16.136030 -3.290980 -2.098991 11.987107 -7.913415 -15.081361 10.922247 4.387296 16.874629 -6.301797 -17.274355 -31.000163 24.687378 41.880041 1.275686 11.874584 0.479791 0.548610 0.478260 0.173230 18.505666 -10.312347 3.189436 -5.543768 6.687811 -24.470025 15.142657 -16.511024 48.876554 -1.419046 -8.646669 1.381939 0.289410 0.105850 0.017850 -4.167682 1.087944 -9.061915 11.713116 -1.669256 18.585787 -3.086683 0.587049 18.924984 3.434919 3.078827 -18.919778 6.062609 -15.353719 34.958778 8.924830 -17.138270 -20.964000 -15.189748 -35.154235 9.509365 -44.028862 -15.900066 -1.235032 15.640927 4.386545 -0.618163 -3.571664 3.013376 0.573010 -0.190540 0.123930 0.245300 8.741432 38.435406 16.364928 46.384938 12.136282 -0.799718 -11.867660 -7.637632 1.082656 2.536826 -1.451258 -0.121040 0.395950 -0.078450 0.003030 
-0.767250 16.260600 -3.315140 -2.129598 10.693103 -8.829606 -15.062704 11.274477 4.232819 15.942283 -5.716715 -15.101976 -29.729138 22.977362 39.747200 1.194892 11.309800 0.692631 0.465810 0.385450 0.101490 18.461279 -10.574655 3.058393 -4.263328 6.082014 -22.377818 12.519485 -14.392597 47.090700 -1.227773 -7.971358 1.636531 0.222450 0.152870 -0.007020 -4.133344 0.931198 -8.929480 11.417688 -1.645694 19.039459 -2.729069 0.654185 19.257007 2.759674 2.929855 -19.531516 5.649011 -15.472004 36.240638 10.031970 -18.065840 -19.536620 -13.766505 -35.713870 9.922099 -43.785773 -15.719236 -1.280393 15.545833 3.861700 -0.659313 -3.563904 2.993626 0.553070 -0.177330 0.086350 0.248760 8.613155 38.815832 16.978639 45.398654 11.424986 -1.185343 -13.017379 -7.361357 1.031968 2.560482 -1.433503 -0.138680 0.405720 -0.053190 0.024960 
-0.748820 16.417880 -3.333890 -2.097259 9.721009 -9.535121 -15.066106 11.687280 4.029471 14.612021 -5.087128 -12.755655 -27.678410 20.685051 37.132506 1.052021 10.539095 0.953894 0.404400 0.311360 0.061540 18.387118 -10.860761 2.915690 -3.460777 5.040083 -19.820639 10.643103 -12.446884 43.677015 -1.018659 -7.176512 1.911339 0.166730 0.179090 0.000150 -4.025878 0.727480 -8.734359 10.568005 -1.468803 19.073148 -2.036959 0.536848 19.803064 2.314581 3.034801 -20.097162 5.777377 -15.642651 36.815771 10.181810 -18.580440 -18.009780 -12.820743 -36.074758 10.180700 -43.048126 -15.749272 -1.280010 15.919675 4.141777 -0.637911 -3.592201 3.003831 0.522580 -0.156920 0.061830 0.238060 8.538200 38.868551 17.600906 44.060474 10.472388 -1.375338 -13.943902 -6.571478 0.884500 2.574210 -1.434476 -0.133350 0.384640 -0.030110 0.038840 
-0.731750 16.593490 -3.351080 -1.821491 8.833054 -9.922016 -15.091227 12.108912 3.800363 12.876917 -4.310341 -10.527252 -25.187617 18.126044 33.968861 0.863185 9.597272 1.284802 0.360560 0.266830 0.016300 18.296496 -11.130222 2.784736 -3.246622 3.869549 -17.427610 9.134233 -10.664477 39.359804 -0.808607 -6.363169 2.205301 0.134010 0.219570 0.011820 -3.860376 0.501116 -8.495214 9.219430 -1.159541 18.826011 -0.949784 0.326835 20.447023 1.938470 3.112559 -20.452434 5.958036 -15.801630 36.231421 9.917970 -18.889860 -16.626580 -12.273786 -35.804445 10.141674 -41.774887 -15.695626 -1.240957 16.252457 4.190025 -0.651220 -3.634974 3.014316 0.483080 -0.121930 0.031780 0.245220 8.777165 38.424702 18.073159 41.588952 9.532752 -1.212131 -13.878391 -6.101337 0.749353 2.588220 -1.428774 -0.128960 0.371500 -0.014790 0.059400 
-0.703070 16.776900 -3.359690 -2.025455 7.636429 -10.155148 -15.057905 12.435938 3.490915 11.251049 -3.156399 -7.853542 -22.110240 15.337676 29.847853 0.572362 8.486864 1.673103 0.324710 0.206160 0.009320 18.280444 -11.414775 2.729154 -3.350846 2.815701 -15.141108 8.665887 -9.421780 34.444037 -0.628551 -5.670998 2.448644 0.119440 0.247780 0.021280 -3.877053 0.526691 -8.217932 9.239461 -1.236713 17.867030 -1.084096 0.050923 21.199755 2.127310 3.485959 -20.318077 6.762773 -15.891119 34.873899 8.857700 -18.666440 -15.543080 -11.208710 -35.189735 10.296372 -40.417259 -15.239068 -1.043080 16.172045 4.007613 -0.693540 -3.693220 2.999350 0.469160 -0.084510 -0.007850 0.226170 7.354375 37.492497 18.116825 40.443073 9.975692 -0.907088 -14.515818 -5.520194 0.558875 2.567080 -1.447685 -0.155880 0.364000 0.014380 0.041610 
-0.662050 16.955120 -3.371710 -2.496475 6.229342 -10.123437 -15.020619 12.682323 3.190259 9.684047 -1.916605 -5.449831 -18.597612 12.614447 25.304866 0.295991 7.294224 2.099628 0.319970 0.196650 0.019690 18.289350 -11.638135 2.728020 -3.685246 2.042851 -13.566298 8.598647 -8.595125 30.268280 -0.514272 -5.191410 2.614840 0.125550 0.257260 0.041360 -3.926440 0.619006 -7.949759 9.867099 -1.294551 16.745396 -1.284484 -0.266277 21.750754 2.565185 3.937490 -19.933264 7.721998 -16.077940 32.850938 7.607440 -18.174090 -15.143020 -9.920261 -34.078967 10.228388 -39.282058 -15.024069 -0.757489 16.082300 3.900146 -0.685320 -3.746601 3.001675 0.444800 -0.052840 -0.025320 0.215780 5.205823 36.009116 17.990291 39.160052 10.464512 -0.173395 -14.319659 -4.760282 0.414182 2.545905 -1.462658 -0.157440 0.346970 0.021280 0.032740 
